<?xml version="1.0" encoding="UTF-8"?>
<svg version="1.1" xmlns="http://www.w3.org/2000/svg" width="64" height="64">
<path d="M0 0 C2.62139195 0.05637402 3.80939157 0.15613575 5.7578125 1.953125 C6.69795161 3.1887364 7.63255224 4.42857527 8.5625 5.671875 C12.43557522 10.01115371 18.45145591 12.75319609 24.25 13.1875 C30.04854409 12.75319609 36.06442478 10.01115371 39.9375 5.671875 C40.411875 5.03765625 40.88625 4.4034375 41.375 3.75 C42.99566935 1.61997742 43.69797919 0.69998443 46.3203125 0.046875 C48.5 0 48.5 0 52.25 0.5625 C54.25 2.5625 54.25 2.5625 54.515625 4.4375 C54.51046875 5.13875 54.5053125 5.84 54.5 6.5625 C54.50773437 7.614375 54.50773437 7.614375 54.515625 8.6875 C54.25 10.5625 54.25 10.5625 52.25 12.5625 C52.48277832 15.51102536 52.90583773 17.14950528 54.8125 19.4375 C56.93613318 22.57678383 56.7199365 24.87014179 56.25 28.5625 C54.625 30.5625 54.625 30.5625 52.25 31.5625 C49.375 31.6875 49.375 31.6875 46.25 30.5625 C43.99170384 28.41198616 42.09680487 26.07074916 40.25 23.5625 C40.35699219 24.31015625 40.46398438 25.0578125 40.57421875 25.828125 C40.69410156 26.81296875 40.81398437 27.7978125 40.9375 28.8125 C41.06511719 29.78703125 41.19273438 30.7615625 41.32421875 31.765625 C41.23585156 35.09567266 40.635363 36.2736236 38.25 38.5625 C34.88982191 38.98252226 32.46027213 39.23023635 29.4375 37.5625 C27.56585944 34.41026326 27.01241462 31.139984 26.25 27.5625 C24.93 27.5625 23.61 27.5625 22.25 27.5625 C22.05664062 28.27277344 21.86328125 28.98304687 21.6640625 29.71484375 C21.40367188 30.63394531 21.14328125 31.55304687 20.875 32.5 C20.61976562 33.41652344 20.36453125 34.33304688 20.1015625 35.27734375 C19.25 37.5625 19.25 37.5625 17.25 38.5625 C13.8125 38.875 13.8125 38.875 10.25 38.5625 C7.85600795 36.28122955 7.264128 35.09490259 7.17578125 31.765625 C7.36720703 30.30382813 7.36720703 30.30382813 7.5625 28.8125 C7.74232422 27.33523437 7.74232422 27.33523437 7.92578125 25.828125 C8.03277344 25.08046875 8.13976563 24.3328125 8.25 23.5625 C7.88648438 24.05621094 7.52296875 24.54992187 7.1484375 25.05859375 C4.62633904 28.27265256 3.03879804 30.27853271 -0.875 31.6875 C-3.75 31.5625 -3.75 31.5625 -6.125 30.5625 C-7.75 28.5625 -7.75 28.5625 -8.25 25.25 C-7.67720815 21.02566013 -6.13406002 19.02323229 -3.75 15.5625 C-3.93646317 13.26278762 -4.12457684 12.18792316 -5.75 10.5625 C-6.02314815 4.82638889 -6.02314815 4.82638889 -5.75 2.5625 C-3.75 0.5625 -3.75 0.5625 0 0 Z " fill="#161717" transform="translate(7.75,12.4375)"/>
<path d="M0 0 C4.3361867 1.8878636 7.2841346 4.90881604 10.68359375 8.125 C16.97994487 13.22154054 24.25754713 12.68548391 32 12 C38.86229176 10.24271945 43.35967303 5.0846136 48 0 C48.99 0.33 49.98 0.66 51 1 C49.74433095 4.47723736 48.26656844 7.09382458 46 10 C46.51691406 10.61488281 47.03382812 11.22976562 47.56640625 11.86328125 C48.22511719 12.67152344 48.88382813 13.47976562 49.5625 14.3125 C50.22378906 15.11300781 50.88507812 15.91351563 51.56640625 16.73828125 C52.03949219 17.48464844 52.51257812 18.23101562 53 19 C52.505 20.485 52.505 20.485 52 22 C51.01 22 50.02 22 49 22 C47.39453125 20.3203125 47.39453125 20.3203125 45.8125 18.125 C45.28269531 17.40570313 44.75289062 16.68640625 44.20703125 15.9453125 C43 14 43 14 43 12 C42.236875 12.495 41.47375 12.99 40.6875 13.5 C38 15 38 15 35 15 C35.15597656 15.66386719 35.31195313 16.32773437 35.47265625 17.01171875 C35.76462891 18.33623047 35.76462891 18.33623047 36.0625 19.6875 C36.35833984 20.99267578 36.35833984 20.99267578 36.66015625 22.32421875 C37.02032279 25.16001276 36.70909969 27.24789982 36 30 C35.01 29.67 34.02 29.34 33 29 C32.34 25.04 31.68 21.08 31 17 C27.04 17 23.08 17 19 17 C18.34 20.96 17.68 24.92 17 29 C15.68 29 14.36 29 13 29 C13.96355353 19.58997722 13.96355353 19.58997722 15 15 C14.236875 14.87625 13.47375 14.7525 12.6875 14.625 C10 14 10 14 7 12 C6.62875 12.804375 6.62875 12.804375 6.25 13.625 C4.70303025 16.56424252 2.86985631 19.25754408 1 22 C-0.32 21.67 -1.64 21.34 -3 21 C-1.44298069 16.32894208 1.08447373 12.91294315 4 9 C3.154375 8.071875 2.30875 7.14375 1.4375 6.1875 C-0.00390625 4.60546875 -0.00390625 4.60546875 -1 3 C-0.67 2.01 -0.34 1.02 0 0 Z " fill="#C9CCD3" transform="translate(7,17)"/>
</svg>
