<?xml version="1.0" encoding="UTF-8"?>
<svg version="1.1" xmlns="http://www.w3.org/2000/svg" width="64" height="64">
<path d="M0 0 C1.68976756 1.40525832 3.33753403 2.84489323 4.97119141 4.31494141 C5.49632324 4.78593262 6.02145508 5.25692383 6.5625 5.7421875 C8.57109541 7.63376444 10.216171 9.35784806 11.43212891 11.85009766 C11.38845703 15.39479857 8.8105464 17.26519341 6.50244141 19.72900391 C-1.5382173 27.49964049 -10.15434031 32.8988346 -21.59130859 32.75244141 C-32.28572931 31.63719455 -41.58082411 24.49180424 -48.59130859 16.75244141 C-49.87646484 13.97119141 -49.87646484 13.97119141 -50.59130859 11.75244141 C-43.92840161 3.20208979 -35.5968177 -4.19963766 -24.90380859 -6.93505859 C-15.46045776 -7.82594075 -7.54015356 -5.91135082 0 0 Z " fill="#D1E5ED" transform="translate(51.59130859375,19.24755859375)"/>
<path d="M0 0 C5.67549553 2.04317839 9.29873721 5.59747441 12 11 C12.40399154 16.25189007 11.88990343 19.56881474 9 24 C5.27262954 27.77829082 2.05584251 29.80605259 -3.3125 30.3125 C-8.83597187 29.84440916 -11.66819116 27.47578817 -15.3125 23.4375 C-18.17183193 19.30735388 -18.4185961 15.93943398 -18 11 C-13.86503929 3.18951866 -8.78720719 -0.58581381 0 0 Z " fill="#47A2FB" transform="translate(35,17)"/>
<path d="M0 0 C0.66 0.99 1.32 1.98 2 3 C2.99 3.33 3.98 3.66 5 4 C5.4206933 8.29107165 5.45543836 10.35134537 2.9375 13.9375 C-0.74062512 16.52001338 -2.59231863 16.72125695 -7 16 C-9.4375 14.5 -9.4375 14.5 -11 12 C-11.80414661 7.95439643 -11.63828902 5.02126244 -9.4375 1.5 C-6.1028644 -0.55208345 -3.840317 -0.49781887 0 0 Z " fill="#34393E" transform="translate(35,24)"/>
<path d="M0 0 C1.32 0 2.64 0 4 0 C4 1.32 4 2.64 4 4 C2.35 3.67 0.7 3.34 -1 3 C-0.67 2.01 -0.34 1.02 0 0 Z " fill="#EFF4F9" transform="translate(36,23)"/>
</svg>
